<?xml version="1.0" encoding="UTF-8" ?>
<svg version="1.1" width="128" height="128" xmlns="http://www.w3.org/2000/svg" shape-rendering="crispEdges">
<rect x="80" y="4" width="4" height="4" fill="#37946E" />
<rect x="84" y="4" width="4" height="4" fill="#37946E" />
<rect x="88" y="4" width="4" height="4" fill="#37946E" />
<rect x="92" y="4" width="4" height="4" fill="#215640" />
<rect x="76" y="8" width="4" height="4" fill="#37946E" />
<rect x="80" y="8" width="4" height="4" fill="#4CCF99" />
<rect x="84" y="8" width="4" height="4" fill="#37946E" />
<rect x="88" y="8" width="4" height="4" fill="#37946E" />
<rect x="92" y="8" width="4" height="4" fill="#2C6E53" />
<rect x="96" y="8" width="4" height="4" fill="#215640" />
<rect x="72" y="12" width="4" height="4" fill="#37946E" />
<rect x="76" y="12" width="4" height="4" fill="#4CCF99" />
<rect x="80" y="12" width="4" height="4" fill="#37946E" />
<rect x="84" y="12" width="4" height="4" fill="#37946E" />
<rect x="88" y="12" width="4" height="4" fill="#37946E" />
<rect x="92" y="12" width="4" height="4" fill="#37946E" />
<rect x="96" y="12" width="4" height="4" fill="#2C6E53" />
<rect x="100" y="12" width="4" height="4" fill="#215640" />
<rect x="72" y="16" width="4" height="4" fill="#37946E" />
<rect x="76" y="16" width="4" height="4" fill="#37946E" />
<rect x="80" y="16" width="4" height="4" fill="#37946E" />
<rect x="84" y="16" width="4" height="4" fill="#37946E" />
<rect x="88" y="16" width="4" height="4" fill="#37946E" />
<rect x="92" y="16" width="4" height="4" fill="#37946E" />
<rect x="96" y="16" width="4" height="4" fill="#2C6E53" />
<rect x="100" y="16" width="4" height="4" fill="#215640" />
<rect x="72" y="20" width="4" height="4" fill="#37946E" />
<rect x="76" y="20" width="4" height="4" fill="#37946E" />
<rect x="80" y="20" width="4" height="4" fill="#37946E" />
<rect x="84" y="20" width="4" height="4" fill="#37946E" />
<rect x="88" y="20" width="4" height="4" fill="#37946E" />
<rect x="92" y="20" width="4" height="4" fill="#2C6E53" />
<rect x="96" y="20" width="4" height="4" fill="#2C6E53" />
<rect x="100" y="20" width="4" height="4" fill="#215640" />
<rect x="76" y="24" width="4" height="4" fill="#37946E" />
<rect x="80" y="24" width="4" height="4" fill="#37946E" />
<rect x="84" y="24" width="4" height="4" fill="#37946E" />
<rect x="88" y="24" width="4" height="4" fill="#2C6E53" />
<rect x="92" y="24" width="4" height="4" fill="#2C6E53" />
<rect x="96" y="24" width="4" height="4" fill="#215640" />
<rect x="80" y="28" width="4" height="4" fill="#37946E" />
<rect x="84" y="28" width="4" height="4" fill="#215640" />
<rect x="88" y="28" width="4" height="4" fill="#215640" />
<rect x="92" y="28" width="4" height="4" fill="#215640" />
<rect x="48" y="32" width="4" height="4" fill="#639BFF" />
<rect x="52" y="32" width="4" height="4" fill="#8CB3FA" />
<rect x="56" y="32" width="4" height="4" fill="#8CB3FA" />
<rect x="60" y="32" width="4" height="4" fill="#8CB3FA" />
<rect x="64" y="32" width="4" height="4" fill="#8CB3FA" />
<rect x="68" y="32" width="4" height="4" fill="#DFDA75" />
<rect x="84" y="32" width="4" height="4" fill="#663931" />
<rect x="88" y="32" width="4" height="4" fill="#3B221D" />
<rect x="44" y="36" width="4" height="4" fill="#DFDA75" />
<rect x="48" y="36" width="4" height="4" fill="#8CB3FA" />
<rect x="52" y="36" width="4" height="4" fill="#8CB3FA" />
<rect x="56" y="36" width="4" height="4" fill="#8CB3FA" />
<rect x="60" y="36" width="4" height="4" fill="#639BFF" />
<rect x="64" y="36" width="4" height="4" fill="#DFDA75" />
<rect x="84" y="36" width="4" height="4" fill="#663931" />
<rect x="88" y="36" width="4" height="4" fill="#3B221D" />
<rect x="40" y="40" width="4" height="4" fill="#DFDA75" />
<rect x="44" y="40" width="4" height="4" fill="#DFDA75" />
<rect x="48" y="40" width="4" height="4" fill="#639BFF" />
<rect x="52" y="40" width="4" height="4" fill="#8CB3FA" />
<rect x="56" y="40" width="4" height="4" fill="#8CB3FA" />
<rect x="60" y="40" width="4" height="4" fill="#639BFF" />
<rect x="64" y="40" width="4" height="4" fill="#DFDA75" />
<rect x="84" y="40" width="4" height="4" fill="#663931" />
<rect x="88" y="40" width="4" height="4" fill="#3B221D" />
<rect x="36" y="44" width="4" height="4" fill="#DFDA75" />
<rect x="40" y="44" width="4" height="4" fill="#DFDA75" />
<rect x="44" y="44" width="4" height="4" fill="#639BFF" />
<rect x="48" y="44" width="4" height="4" fill="#8CB3FA" />
<rect x="52" y="44" width="4" height="4" fill="#639BFF" />
<rect x="56" y="44" width="4" height="4" fill="#639BFF" />
<rect x="84" y="44" width="4" height="4" fill="#663931" />
<rect x="88" y="44" width="4" height="4" fill="#3B221D" />
<rect x="32" y="48" width="4" height="4" fill="#DFDA75" />
<rect x="36" y="48" width="4" height="4" fill="#DFDA75" />
<rect x="40" y="48" width="4" height="4" fill="#639BFF" />
<rect x="44" y="48" width="4" height="4" fill="#8CB3FA" />
<rect x="48" y="48" width="4" height="4" fill="#639BFF" />
<rect x="52" y="48" width="4" height="4" fill="#639BFF" />
<rect x="28" y="52" width="4" height="4" fill="#DFDA75" />
<rect x="32" y="52" width="4" height="4" fill="#639BFF" />
<rect x="36" y="52" width="4" height="4" fill="#639BFF" />
<rect x="40" y="52" width="4" height="4" fill="#639BFF" />
<rect x="44" y="52" width="4" height="4" fill="#639BFF" />
<rect x="48" y="52" width="4" height="4" fill="#639BFF" />
<rect x="52" y="52" width="4" height="4" fill="#DFDA75" />
<rect x="24" y="56" width="4" height="4" fill="#DFDA75" />
<rect x="28" y="56" width="4" height="4" fill="#639BFF" />
<rect x="32" y="56" width="4" height="4" fill="#639BFF" />
<rect x="36" y="56" width="4" height="4" fill="#639BFF" />
<rect x="40" y="56" width="4" height="4" fill="#639BFF" />
<rect x="44" y="56" width="4" height="4" fill="#639BFF" />
<rect x="48" y="56" width="4" height="4" fill="#DFDA75" />
<rect x="20" y="60" width="4" height="4" fill="#AEAB65" />
<rect x="24" y="60" width="4" height="4" fill="#5B6EE1" />
<rect x="28" y="60" width="4" height="4" fill="#5B6EE1" />
<rect x="32" y="60" width="4" height="4" fill="#5B6EE1" />
<rect x="36" y="60" width="4" height="4" fill="#5B6EE1" />
<rect x="40" y="60" width="4" height="4" fill="#5B6EE1" />
<rect x="44" y="60" width="4" height="4" fill="#AEAB65" />
<rect x="48" y="60" width="4" height="4" fill="#AEAB65" />
<rect x="52" y="60" width="4" height="4" fill="#6ABE30" />
<rect x="56" y="60" width="4" height="4" fill="#6ABE30" />
<rect x="60" y="60" width="4" height="4" fill="#6ABE30" />
<rect x="64" y="60" width="4" height="4" fill="#6ABE30" />
<rect x="68" y="60" width="4" height="4" fill="#6ABE30" />
<rect x="72" y="60" width="4" height="4" fill="#6ABE30" />
<rect x="76" y="60" width="4" height="4" fill="#6ABE30" />
<rect x="80" y="60" width="4" height="4" fill="#6ABE30" />
<rect x="84" y="60" width="4" height="4" fill="#6ABE30" />
<rect x="88" y="60" width="4" height="4" fill="#6ABE30" />
<rect x="92" y="60" width="4" height="4" fill="#6ABE30" />
<rect x="96" y="60" width="4" height="4" fill="#6ABE30" />
<rect x="100" y="60" width="4" height="4" fill="#6ABE30" />
<rect x="104" y="60" width="4" height="4" fill="#6ABE30" />
<rect x="108" y="60" width="4" height="4" fill="#6ABE30" />
<rect x="112" y="60" width="4" height="4" fill="#6ABE30" />
<rect x="116" y="60" width="4" height="4" fill="#538E2A" />
<rect x="24" y="64" width="4" height="4" fill="#AEAB65" />
<rect x="28" y="64" width="4" height="4" fill="#AEAB65" />
<rect x="32" y="64" width="4" height="4" fill="#AEAB65" />
<rect x="36" y="64" width="4" height="4" fill="#AEAB65" />
<rect x="40" y="64" width="4" height="4" fill="#AEAB65" />
<rect x="44" y="64" width="4" height="4" fill="#6ABE30" />
<rect x="48" y="64" width="4" height="4" fill="#6ABE30" />
<rect x="52" y="64" width="4" height="4" fill="#6ABE30" />
<rect x="56" y="64" width="4" height="4" fill="#6ABE30" />
<rect x="60" y="64" width="4" height="4" fill="#6ABE30" />
<rect x="64" y="64" width="4" height="4" fill="#6ABE30" />
<rect x="68" y="64" width="4" height="4" fill="#6ABE30" />
<rect x="72" y="64" width="4" height="4" fill="#6ABE30" />
<rect x="76" y="64" width="4" height="4" fill="#6ABE30" />
<rect x="80" y="64" width="4" height="4" fill="#6ABE30" />
<rect x="84" y="64" width="4" height="4" fill="#6ABE30" />
<rect x="88" y="64" width="4" height="4" fill="#6ABE30" />
<rect x="92" y="64" width="4" height="4" fill="#6ABE30" />
<rect x="96" y="64" width="4" height="4" fill="#6ABE30" />
<rect x="100" y="64" width="4" height="4" fill="#6ABE30" />
<rect x="104" y="64" width="4" height="4" fill="#6ABE30" />
<rect x="108" y="64" width="4" height="4" fill="#538E2A" />
<rect x="112" y="64" width="4" height="4" fill="#538E2A" />
<rect x="116" y="64" width="4" height="4" fill="#663931" />
<rect x="28" y="68" width="4" height="4" fill="#6ABE30" />
<rect x="32" y="68" width="4" height="4" fill="#6ABE30" />
<rect x="36" y="68" width="4" height="4" fill="#6ABE30" />
<rect x="40" y="68" width="4" height="4" fill="#6ABE30" />
<rect x="44" y="68" width="4" height="4" fill="#6ABE30" />
<rect x="48" y="68" width="4" height="4" fill="#6ABE30" />
<rect x="52" y="68" width="4" height="4" fill="#6ABE30" />
<rect x="56" y="68" width="4" height="4" fill="#6ABE30" />
<rect x="60" y="68" width="4" height="4" fill="#6ABE30" />
<rect x="64" y="68" width="4" height="4" fill="#6ABE30" />
<rect x="68" y="68" width="4" height="4" fill="#6ABE30" />
<rect x="72" y="68" width="4" height="4" fill="#6ABE30" />
<rect x="76" y="68" width="4" height="4" fill="#6ABE30" />
<rect x="80" y="68" width="4" height="4" fill="#6ABE30" />
<rect x="84" y="68" width="4" height="4" fill="#6ABE30" />
<rect x="88" y="68" width="4" height="4" fill="#6ABE30" />
<rect x="92" y="68" width="4" height="4" fill="#6ABE30" />
<rect x="96" y="68" width="4" height="4" fill="#6ABE30" />
<rect x="100" y="68" width="4" height="4" fill="#6ABE30" />
<rect x="104" y="68" width="4" height="4" fill="#538E2A" />
<rect x="108" y="68" width="4" height="4" fill="#663931" />
<rect x="112" y="68" width="4" height="4" fill="#663931" />
<rect x="24" y="72" width="4" height="4" fill="#6ABE30" />
<rect x="28" y="72" width="4" height="4" fill="#6ABE30" />
<rect x="32" y="72" width="4" height="4" fill="#6ABE30" />
<rect x="36" y="72" width="4" height="4" fill="#6ABE30" />
<rect x="40" y="72" width="4" height="4" fill="#6ABE30" />
<rect x="44" y="72" width="4" height="4" fill="#6ABE30" />
<rect x="48" y="72" width="4" height="4" fill="#6ABE30" />
<rect x="52" y="72" width="4" height="4" fill="#6ABE30" />
<rect x="56" y="72" width="4" height="4" fill="#6ABE30" />
<rect x="60" y="72" width="4" height="4" fill="#6ABE30" />
<rect x="64" y="72" width="4" height="4" fill="#6ABE30" />
<rect x="68" y="72" width="4" height="4" fill="#6ABE30" />
<rect x="72" y="72" width="4" height="4" fill="#6ABE30" />
<rect x="76" y="72" width="4" height="4" fill="#6ABE30" />
<rect x="80" y="72" width="4" height="4" fill="#6ABE30" />
<rect x="84" y="72" width="4" height="4" fill="#6ABE30" />
<rect x="88" y="72" width="4" height="4" fill="#6ABE30" />
<rect x="92" y="72" width="4" height="4" fill="#6ABE30" />
<rect x="96" y="72" width="4" height="4" fill="#6ABE30" />
<rect x="100" y="72" width="4" height="4" fill="#538E2A" />
<rect x="104" y="72" width="4" height="4" fill="#663931" />
<rect x="20" y="76" width="4" height="4" fill="#6ABE30" />
<rect x="24" y="76" width="4" height="4" fill="#6ABE30" />
<rect x="28" y="76" width="4" height="4" fill="#6ABE30" />
<rect x="32" y="76" width="4" height="4" fill="#6ABE30" />
<rect x="36" y="76" width="4" height="4" fill="#6ABE30" />
<rect x="40" y="76" width="4" height="4" fill="#6ABE30" />
<rect x="44" y="76" width="4" height="4" fill="#6ABE30" />
<rect x="48" y="76" width="4" height="4" fill="#6ABE30" />
<rect x="52" y="76" width="4" height="4" fill="#6ABE30" />
<rect x="56" y="76" width="4" height="4" fill="#6ABE30" />
<rect x="60" y="76" width="4" height="4" fill="#6ABE30" />
<rect x="64" y="76" width="4" height="4" fill="#6ABE30" />
<rect x="68" y="76" width="4" height="4" fill="#6ABE30" />
<rect x="72" y="76" width="4" height="4" fill="#6ABE30" />
<rect x="76" y="76" width="4" height="4" fill="#6ABE30" />
<rect x="80" y="76" width="4" height="4" fill="#6ABE30" />
<rect x="84" y="76" width="4" height="4" fill="#6ABE30" />
<rect x="88" y="76" width="4" height="4" fill="#6ABE30" />
<rect x="92" y="76" width="4" height="4" fill="#6ABE30" />
<rect x="96" y="76" width="4" height="4" fill="#538E2A" />
<rect x="100" y="76" width="4" height="4" fill="#663931" />
<rect x="12" y="80" width="4" height="4" fill="#6ABE30" />
<rect x="16" y="80" width="4" height="4" fill="#6ABE30" />
<rect x="20" y="80" width="4" height="4" fill="#6ABE30" />
<rect x="24" y="80" width="4" height="4" fill="#6ABE30" />
<rect x="28" y="80" width="4" height="4" fill="#6ABE30" />
<rect x="32" y="80" width="4" height="4" fill="#6ABE30" />
<rect x="36" y="80" width="4" height="4" fill="#6ABE30" />
<rect x="40" y="80" width="4" height="4" fill="#6ABE30" />
<rect x="44" y="80" width="4" height="4" fill="#6ABE30" />
<rect x="48" y="80" width="4" height="4" fill="#6ABE30" />
<rect x="52" y="80" width="4" height="4" fill="#6ABE30" />
<rect x="56" y="80" width="4" height="4" fill="#6ABE30" />
<rect x="60" y="80" width="4" height="4" fill="#6ABE30" />
<rect x="64" y="80" width="4" height="4" fill="#6ABE30" />
<rect x="68" y="80" width="4" height="4" fill="#6ABE30" />
<rect x="72" y="80" width="4" height="4" fill="#6ABE30" />
<rect x="76" y="80" width="4" height="4" fill="#6ABE30" />
<rect x="80" y="80" width="4" height="4" fill="#6ABE30" />
<rect x="84" y="80" width="4" height="4" fill="#6ABE30" />
<rect x="88" y="80" width="4" height="4" fill="#538E2A" />
<rect x="92" y="80" width="4" height="4" fill="#538E2A" />
<rect x="96" y="80" width="4" height="4" fill="#663931" />
<rect x="8" y="84" width="4" height="4" fill="#8F563B" />
<rect x="12" y="84" width="4" height="4" fill="#8F563B" />
<rect x="16" y="84" width="4" height="4" fill="#8F563B" />
<rect x="20" y="84" width="4" height="4" fill="#8F563B" />
<rect x="24" y="84" width="4" height="4" fill="#8F563B" />
<rect x="28" y="84" width="4" height="4" fill="#8F563B" />
<rect x="32" y="84" width="4" height="4" fill="#8F563B" />
<rect x="36" y="84" width="4" height="4" fill="#8F563B" />
<rect x="40" y="84" width="4" height="4" fill="#8F563B" />
<rect x="44" y="84" width="4" height="4" fill="#8F563B" />
<rect x="48" y="84" width="4" height="4" fill="#8F563B" />
<rect x="52" y="84" width="4" height="4" fill="#8F563B" />
<rect x="56" y="84" width="4" height="4" fill="#8F563B" />
<rect x="60" y="84" width="4" height="4" fill="#8F563B" />
<rect x="64" y="84" width="4" height="4" fill="#8F563B" />
<rect x="68" y="84" width="4" height="4" fill="#8F563B" />
<rect x="72" y="84" width="4" height="4" fill="#8F563B" />
<rect x="76" y="84" width="4" height="4" fill="#8F563B" />
<rect x="80" y="84" width="4" height="4" fill="#8F563B" />
<rect x="84" y="84" width="4" height="4" fill="#8F563B" />
<rect x="88" y="84" width="4" height="4" fill="#663931" />
<rect x="92" y="84" width="4" height="4" fill="#663931" />
<rect x="96" y="84" width="4" height="4" fill="#564D48" />
<rect x="100" y="84" width="4" height="4" fill="#564D48" />
<rect x="104" y="84" width="4" height="4" fill="#564D48" />
<rect x="108" y="84" width="4" height="4" fill="#715243" />
<rect x="112" y="84" width="4" height="4" fill="#715243" />
<rect x="116" y="84" width="4" height="4" fill="#69666B" />
<rect x="8" y="88" width="4" height="4" fill="#8F563B" />
<rect x="12" y="88" width="4" height="4" fill="#8F563B" />
<rect x="16" y="88" width="4" height="4" fill="#8F563B" />
<rect x="20" y="88" width="4" height="4" fill="#8F563B" />
<rect x="24" y="88" width="4" height="4" fill="#8F563B" />
<rect x="28" y="88" width="4" height="4" fill="#8F563B" />
<rect x="32" y="88" width="4" height="4" fill="#8F563B" />
<rect x="36" y="88" width="4" height="4" fill="#8F563B" />
<rect x="40" y="88" width="4" height="4" fill="#8F563B" />
<rect x="44" y="88" width="4" height="4" fill="#8F563B" />
<rect x="48" y="88" width="4" height="4" fill="#8F563B" />
<rect x="52" y="88" width="4" height="4" fill="#8F563B" />
<rect x="56" y="88" width="4" height="4" fill="#8F563B" />
<rect x="60" y="88" width="4" height="4" fill="#8F563B" />
<rect x="64" y="88" width="4" height="4" fill="#8F563B" />
<rect x="68" y="88" width="4" height="4" fill="#8F563B" />
<rect x="72" y="88" width="4" height="4" fill="#8F563B" />
<rect x="76" y="88" width="4" height="4" fill="#8F563B" />
<rect x="80" y="88" width="4" height="4" fill="#8F563B" />
<rect x="84" y="88" width="4" height="4" fill="#8F563B" />
<rect x="88" y="88" width="4" height="4" fill="#564D48" />
<rect x="92" y="88" width="4" height="4" fill="#564D48" />
<rect x="96" y="88" width="4" height="4" fill="#564D48" />
<rect x="100" y="88" width="4" height="4" fill="#766A63" />
<rect x="104" y="88" width="4" height="4" fill="#715243" />
<rect x="108" y="88" width="4" height="4" fill="#69666B" />
<rect x="112" y="88" width="4" height="4" fill="#715243" />
<rect x="116" y="88" width="4" height="4" fill="#69666B" />
<rect x="24" y="92" width="4" height="4" fill="#564D48" />
<rect x="28" y="92" width="4" height="4" fill="#564D48" />
<rect x="32" y="92" width="4" height="4" fill="#564D48" />
<rect x="36" y="92" width="4" height="4" fill="#564D48" />
<rect x="40" y="92" width="4" height="4" fill="#564D48" />
<rect x="44" y="92" width="4" height="4" fill="#564D48" />
<rect x="48" y="92" width="4" height="4" fill="#564D48" />
<rect x="52" y="92" width="4" height="4" fill="#564D48" />
<rect x="56" y="92" width="4" height="4" fill="#564D48" />
<rect x="60" y="92" width="4" height="4" fill="#564D48" />
<rect x="64" y="92" width="4" height="4" fill="#564D48" />
<rect x="68" y="92" width="4" height="4" fill="#564D48" />
<rect x="72" y="92" width="4" height="4" fill="#564D48" />
<rect x="76" y="92" width="4" height="4" fill="#564D48" />
<rect x="80" y="92" width="4" height="4" fill="#564D48" />
<rect x="84" y="92" width="4" height="4" fill="#564D48" />
<rect x="88" y="92" width="4" height="4" fill="#766A63" />
<rect x="92" y="92" width="4" height="4" fill="#766A63" />
<rect x="96" y="92" width="4" height="4" fill="#766A63" />
<rect x="100" y="92" width="4" height="4" fill="#715243" />
<rect x="104" y="92" width="4" height="4" fill="#69666B" />
<rect x="108" y="92" width="4" height="4" fill="#715243" />
<rect x="112" y="92" width="4" height="4" fill="#69666B" />
<rect x="20" y="96" width="4" height="4" fill="#564D48" />
<rect x="24" y="96" width="4" height="4" fill="#564D48" />
<rect x="28" y="96" width="4" height="4" fill="#564D48" />
<rect x="32" y="96" width="4" height="4" fill="#564D48" />
<rect x="36" y="96" width="4" height="4" fill="#564D48" />
<rect x="40" y="96" width="4" height="4" fill="#564D48" />
<rect x="44" y="96" width="4" height="4" fill="#564D48" />
<rect x="48" y="96" width="4" height="4" fill="#564D48" />
<rect x="52" y="96" width="4" height="4" fill="#564D48" />
<rect x="56" y="96" width="4" height="4" fill="#766A63" />
<rect x="60" y="96" width="4" height="4" fill="#766A63" />
<rect x="64" y="96" width="4" height="4" fill="#766A63" />
<rect x="68" y="96" width="4" height="4" fill="#766A63" />
<rect x="72" y="96" width="4" height="4" fill="#766A63" />
<rect x="76" y="96" width="4" height="4" fill="#947D72" />
<rect x="80" y="96" width="4" height="4" fill="#947D72" />
<rect x="84" y="96" width="4" height="4" fill="#947D72" />
<rect x="88" y="96" width="4" height="4" fill="#947D72" />
<rect x="92" y="96" width="4" height="4" fill="#947D72" />
<rect x="96" y="96" width="4" height="4" fill="#715243" />
<rect x="100" y="96" width="4" height="4" fill="#69666B" />
<rect x="104" y="96" width="4" height="4" fill="#69666B" />
<rect x="108" y="96" width="4" height="4" fill="#69666B" />
<rect x="12" y="100" width="4" height="4" fill="#564D48" />
<rect x="16" y="100" width="4" height="4" fill="#564D48" />
<rect x="20" y="100" width="4" height="4" fill="#564D48" />
<rect x="24" y="100" width="4" height="4" fill="#564D48" />
<rect x="28" y="100" width="4" height="4" fill="#564D48" />
<rect x="32" y="100" width="4" height="4" fill="#564D48" />
<rect x="36" y="100" width="4" height="4" fill="#766A63" />
<rect x="40" y="100" width="4" height="4" fill="#766A63" />
<rect x="44" y="100" width="4" height="4" fill="#766A63" />
<rect x="48" y="100" width="4" height="4" fill="#766A63" />
<rect x="52" y="100" width="4" height="4" fill="#766A63" />
<rect x="56" y="100" width="4" height="4" fill="#947D72" />
<rect x="60" y="100" width="4" height="4" fill="#947D72" />
<rect x="64" y="100" width="4" height="4" fill="#947D72" />
<rect x="68" y="100" width="4" height="4" fill="#947D72" />
<rect x="72" y="100" width="4" height="4" fill="#947D72" />
<rect x="76" y="100" width="4" height="4" fill="#947D72" />
<rect x="80" y="100" width="4" height="4" fill="#947D72" />
<rect x="84" y="100" width="4" height="4" fill="#947D72" />
<rect x="88" y="100" width="4" height="4" fill="#715243" />
<rect x="92" y="100" width="4" height="4" fill="#715243" />
<rect x="96" y="100" width="4" height="4" fill="#715243" />
<rect x="100" y="100" width="4" height="4" fill="#715243" />
<rect x="104" y="100" width="4" height="4" fill="#69666B" />
<rect x="8" y="104" width="4" height="4" fill="#8F563B" />
<rect x="12" y="104" width="4" height="4" fill="#8F563B" />
<rect x="16" y="104" width="4" height="4" fill="#8F563B" />
<rect x="20" y="104" width="4" height="4" fill="#8F563B" />
<rect x="24" y="104" width="4" height="4" fill="#8F563B" />
<rect x="28" y="104" width="4" height="4" fill="#8F563B" />
<rect x="32" y="104" width="4" height="4" fill="#8F563B" />
<rect x="36" y="104" width="4" height="4" fill="#8F563B" />
<rect x="40" y="104" width="4" height="4" fill="#8F563B" />
<rect x="44" y="104" width="4" height="4" fill="#8F563B" />
<rect x="48" y="104" width="4" height="4" fill="#8F563B" />
<rect x="52" y="104" width="4" height="4" fill="#8F563B" />
<rect x="56" y="104" width="4" height="4" fill="#8F563B" />
<rect x="60" y="104" width="4" height="4" fill="#8F563B" />
<rect x="64" y="104" width="4" height="4" fill="#8F563B" />
<rect x="68" y="104" width="4" height="4" fill="#8F563B" />
<rect x="72" y="104" width="4" height="4" fill="#8F563B" />
<rect x="76" y="104" width="4" height="4" fill="#8F563B" />
<rect x="80" y="104" width="4" height="4" fill="#8F563B" />
<rect x="84" y="104" width="4" height="4" fill="#8F563B" />
<rect x="88" y="104" width="4" height="4" fill="#715243" />
<rect x="92" y="104" width="4" height="4" fill="#69666B" />
<rect x="96" y="104" width="4" height="4" fill="#69666B" />
<rect x="100" y="104" width="4" height="4" fill="#69666B" />
<rect x="8" y="108" width="4" height="4" fill="#8F563B" />
<rect x="12" y="108" width="4" height="4" fill="#969199" />
<rect x="16" y="108" width="4" height="4" fill="#969199" />
<rect x="20" y="108" width="4" height="4" fill="#969199" />
<rect x="24" y="108" width="4" height="4" fill="#969199" />
<rect x="28" y="108" width="4" height="4" fill="#969199" />
<rect x="32" y="108" width="4" height="4" fill="#969199" />
<rect x="36" y="108" width="4" height="4" fill="#969199" />
<rect x="40" y="108" width="4" height="4" fill="#8F563B" />
<rect x="44" y="108" width="4" height="4" fill="#8F563B" />
<rect x="48" y="108" width="4" height="4" fill="#8F563B" />
<rect x="52" y="108" width="4" height="4" fill="#8F563B" />
<rect x="56" y="108" width="4" height="4" fill="#8F563B" />
<rect x="60" y="108" width="4" height="4" fill="#8F563B" />
<rect x="64" y="108" width="4" height="4" fill="#969199" />
<rect x="68" y="108" width="4" height="4" fill="#969199" />
<rect x="72" y="108" width="4" height="4" fill="#969199" />
<rect x="76" y="108" width="4" height="4" fill="#969199" />
<rect x="80" y="108" width="4" height="4" fill="#8F563B" />
<rect x="84" y="108" width="4" height="4" fill="#8F563B" />
<rect x="88" y="108" width="4" height="4" fill="#69666B" />
<rect x="92" y="108" width="4" height="4" fill="#715243" />
<rect x="96" y="108" width="4" height="4" fill="#69666B" />
<rect x="8" y="112" width="4" height="4" fill="#8F563B" />
<rect x="12" y="112" width="4" height="4" fill="#8F563B" />
<rect x="16" y="112" width="4" height="4" fill="#8F563B" />
<rect x="20" y="112" width="4" height="4" fill="#8F563B" />
<rect x="24" y="112" width="4" height="4" fill="#969199" />
<rect x="28" y="112" width="4" height="4" fill="#8F563B" />
<rect x="32" y="112" width="4" height="4" fill="#8F563B" />
<rect x="36" y="112" width="4" height="4" fill="#8F563B" />
<rect x="40" y="112" width="4" height="4" fill="#8F563B" />
<rect x="44" y="112" width="4" height="4" fill="#969199" />
<rect x="48" y="112" width="4" height="4" fill="#969199" />
<rect x="52" y="112" width="4" height="4" fill="#969199" />
<rect x="56" y="112" width="4" height="4" fill="#969199" />
<rect x="60" y="112" width="4" height="4" fill="#969199" />
<rect x="64" y="112" width="4" height="4" fill="#8F563B" />
<rect x="68" y="112" width="4" height="4" fill="#969199" />
<rect x="72" y="112" width="4" height="4" fill="#969199" />
<rect x="76" y="112" width="4" height="4" fill="#969199" />
<rect x="80" y="112" width="4" height="4" fill="#8F563B" />
<rect x="84" y="112" width="4" height="4" fill="#969199" />
<rect x="88" y="112" width="4" height="4" fill="#715243" />
<rect x="92" y="112" width="4" height="4" fill="#69666B" />
<rect x="8" y="116" width="4" height="4" fill="#969199" />
<rect x="12" y="116" width="4" height="4" fill="#969199" />
<rect x="16" y="116" width="4" height="4" fill="#969199" />
<rect x="20" y="116" width="4" height="4" fill="#8F563B" />
<rect x="24" y="116" width="4" height="4" fill="#969199" />
<rect x="28" y="116" width="4" height="4" fill="#969199" />
<rect x="32" y="116" width="4" height="4" fill="#969199" />
<rect x="36" y="116" width="4" height="4" fill="#969199" />
<rect x="40" y="116" width="4" height="4" fill="#969199" />
<rect x="44" y="116" width="4" height="4" fill="#969199" />
<rect x="48" y="116" width="4" height="4" fill="#969199" />
<rect x="52" y="116" width="4" height="4" fill="#969199" />
<rect x="56" y="116" width="4" height="4" fill="#969199" />
<rect x="60" y="116" width="4" height="4" fill="#8F563B" />
<rect x="64" y="116" width="4" height="4" fill="#8F563B" />
<rect x="68" y="116" width="4" height="4" fill="#969199" />
<rect x="72" y="116" width="4" height="4" fill="#969199" />
<rect x="76" y="116" width="4" height="4" fill="#969199" />
<rect x="80" y="116" width="4" height="4" fill="#969199" />
<rect x="84" y="116" width="4" height="4" fill="#8F563B" />
<rect x="88" y="116" width="4" height="4" fill="#69666B" />
<rect x="8" y="120" width="4" height="4" fill="#969199" />
<rect x="12" y="120" width="4" height="4" fill="#969199" />
<rect x="16" y="120" width="4" height="4" fill="#969199" />
<rect x="20" y="120" width="4" height="4" fill="#969199" />
<rect x="24" y="120" width="4" height="4" fill="#969199" />
<rect x="28" y="120" width="4" height="4" fill="#969199" />
<rect x="32" y="120" width="4" height="4" fill="#969199" />
<rect x="36" y="120" width="4" height="4" fill="#969199" />
<rect x="40" y="120" width="4" height="4" fill="#969199" />
<rect x="44" y="120" width="4" height="4" fill="#969199" />
<rect x="48" y="120" width="4" height="4" fill="#969199" />
<rect x="52" y="120" width="4" height="4" fill="#969199" />
<rect x="56" y="120" width="4" height="4" fill="#969199" />
<rect x="60" y="120" width="4" height="4" fill="#969199" />
<rect x="64" y="120" width="4" height="4" fill="#969199" />
<rect x="68" y="120" width="4" height="4" fill="#969199" />
<rect x="72" y="120" width="4" height="4" fill="#969199" />
<rect x="76" y="120" width="4" height="4" fill="#969199" />
<rect x="80" y="120" width="4" height="4" fill="#969199" />
<rect x="84" y="120" width="4" height="4" fill="#969199" />
</svg>