<?xml version="1.0" encoding="UTF-8" ?>
<svg version="1.1" width="128" height="128" xmlns="http://www.w3.org/2000/svg" shape-rendering="crispEdges">
<rect x="84" y="4" width="4" height="4" fill="#C7F6FC" />
<rect x="88" y="4" width="4" height="4" fill="#8DE7F4" />
<rect x="92" y="4" width="4" height="4" fill="#8DE7F4" />
<rect x="96" y="4" width="4" height="4" fill="#8DE7F4" />
<rect x="76" y="8" width="4" height="4" fill="#C7F6FC" />
<rect x="80" y="8" width="4" height="4" fill="#8DE7F4" />
<rect x="84" y="8" width="4" height="4" fill="#8DE7F4" />
<rect x="88" y="8" width="4" height="4" fill="#8DE7F4" />
<rect x="92" y="8" width="4" height="4" fill="#C7F6FC" />
<rect x="96" y="8" width="4" height="4" fill="#C7F6FC" />
<rect x="100" y="8" width="4" height="4" fill="#C7F6FC" />
<rect x="104" y="8" width="4" height="4" fill="#C7F6FC" />
<rect x="72" y="12" width="4" height="4" fill="#C7F6FC" />
<rect x="76" y="12" width="4" height="4" fill="#8DE7F4" />
<rect x="80" y="12" width="4" height="4" fill="#8DE7F4" />
<rect x="84" y="12" width="4" height="4" fill="#C7F6FC" />
<rect x="88" y="12" width="4" height="4" fill="#C7F6FC" />
<rect x="92" y="12" width="4" height="4" fill="#C7F6FC" />
<rect x="96" y="12" width="4" height="4" fill="#C7F6FC" />
<rect x="100" y="12" width="4" height="4" fill="#C7F6FC" />
<rect x="104" y="12" width="4" height="4" fill="#8DE7F4" />
<rect x="108" y="12" width="4" height="4" fill="#8DE7F4" />
<rect x="64" y="16" width="4" height="4" fill="#C7F6FC" />
<rect x="68" y="16" width="4" height="4" fill="#8DE7F4" />
<rect x="72" y="16" width="4" height="4" fill="#8DE7F4" />
<rect x="76" y="16" width="4" height="4" fill="#C7F6FC" />
<rect x="80" y="16" width="4" height="4" fill="#C7F6FC" />
<rect x="84" y="16" width="4" height="4" fill="#C7F6FC" />
<rect x="88" y="16" width="4" height="4" fill="#C7F6FC" />
<rect x="92" y="16" width="4" height="4" fill="#C7F6FC" />
<rect x="96" y="16" width="4" height="4" fill="#8DE7F4" />
<rect x="100" y="16" width="4" height="4" fill="#8DE7F4" />
<rect x="104" y="16" width="4" height="4" fill="#8DE7F4" />
<rect x="108" y="16" width="4" height="4" fill="#8DE7F4" />
<rect x="112" y="16" width="4" height="4" fill="#C7F6FC" />
<rect x="116" y="16" width="4" height="4" fill="#C7F6FC" />
<rect x="28" y="20" width="4" height="4" fill="#F2ED8C" />
<rect x="32" y="20" width="4" height="4" fill="#F2ED8C" />
<rect x="36" y="20" width="4" height="4" fill="#F2ED8C" />
<rect x="40" y="20" width="4" height="4" fill="#F2ED8C" />
<rect x="60" y="20" width="4" height="4" fill="#FFFFFF" />
<rect x="64" y="20" width="4" height="4" fill="#FFFFFF" />
<rect x="68" y="20" width="4" height="4" fill="#8DE7F4" />
<rect x="72" y="20" width="4" height="4" fill="#C7F6FC" />
<rect x="76" y="20" width="4" height="4" fill="#FFFFFF" />
<rect x="80" y="20" width="4" height="4" fill="#C7F6FC" />
<rect x="84" y="20" width="4" height="4" fill="#C7F6FC" />
<rect x="88" y="20" width="4" height="4" fill="#C7F6FC" />
<rect x="92" y="20" width="4" height="4" fill="#8DE7F4" />
<rect x="96" y="20" width="4" height="4" fill="#8DE7F4" />
<rect x="100" y="20" width="4" height="4" fill="#8DE7F4" />
<rect x="104" y="20" width="4" height="4" fill="#C7F6FC" />
<rect x="108" y="20" width="4" height="4" fill="#C7F6FC" />
<rect x="112" y="20" width="4" height="4" fill="#C7F6FC" />
<rect x="116" y="20" width="4" height="4" fill="#8DE7F4" />
<rect x="120" y="20" width="4" height="4" fill="#8DE7F4" />
<rect x="20" y="24" width="4" height="4" fill="#F2ED8C" />
<rect x="24" y="24" width="4" height="4" fill="#F2ED8C" />
<rect x="28" y="24" width="4" height="4" fill="#F2ED8C" />
<rect x="32" y="24" width="4" height="4" fill="#F2ED8C" />
<rect x="36" y="24" width="4" height="4" fill="#F2ED8C" />
<rect x="40" y="24" width="4" height="4" fill="#F2ED8C" />
<rect x="44" y="24" width="4" height="4" fill="#F2ED8C" />
<rect x="48" y="24" width="4" height="4" fill="#F2ED8C" />
<rect x="60" y="24" width="4" height="4" fill="#C7F6FC" />
<rect x="64" y="24" width="4" height="4" fill="#51D0E2" />
<rect x="68" y="24" width="4" height="4" fill="#FFFFFF" />
<rect x="72" y="24" width="4" height="4" fill="#FFFFFF" />
<rect x="76" y="24" width="4" height="4" fill="#FFFFFF" />
<rect x="80" y="24" width="4" height="4" fill="#C7F6FC" />
<rect x="84" y="24" width="4" height="4" fill="#8DE7F4" />
<rect x="88" y="24" width="4" height="4" fill="#8DE7F4" />
<rect x="92" y="24" width="4" height="4" fill="#8DE7F4" />
<rect x="96" y="24" width="4" height="4" fill="#8DE7F4" />
<rect x="100" y="24" width="4" height="4" fill="#C7F6FC" />
<rect x="104" y="24" width="4" height="4" fill="#C7F6FC" />
<rect x="108" y="24" width="4" height="4" fill="#8DE7F4" />
<rect x="112" y="24" width="4" height="4" fill="#559FC9" />
<rect x="116" y="24" width="4" height="4" fill="#559FC9" />
<rect x="120" y="24" width="4" height="4" fill="#559FC9" />
<rect x="16" y="28" width="4" height="4" fill="#F2ED8C" />
<rect x="20" y="28" width="4" height="4" fill="#F2ED8C" />
<rect x="24" y="28" width="4" height="4" fill="#F2ED8C" />
<rect x="28" y="28" width="4" height="4" fill="#F2ED8C" />
<rect x="32" y="28" width="4" height="4" fill="#F2ED8C" />
<rect x="36" y="28" width="4" height="4" fill="#F2ED8C" />
<rect x="40" y="28" width="4" height="4" fill="#F2ED8C" />
<rect x="44" y="28" width="4" height="4" fill="#F2ED8C" />
<rect x="48" y="28" width="4" height="4" fill="#F2ED8C" />
<rect x="52" y="28" width="4" height="4" fill="#F2ED8C" />
<rect x="60" y="28" width="4" height="4" fill="#C7F6FC" />
<rect x="64" y="28" width="4" height="4" fill="#51D0E2" />
<rect x="68" y="28" width="4" height="4" fill="#C7F6FC" />
<rect x="72" y="28" width="4" height="4" fill="#FFFFFF" />
<rect x="76" y="28" width="4" height="4" fill="#FFFFFF" />
<rect x="80" y="28" width="4" height="4" fill="#FFFFFF" />
<rect x="84" y="28" width="4" height="4" fill="#8DE7F4" />
<rect x="88" y="28" width="4" height="4" fill="#8DE7F4" />
<rect x="92" y="28" width="4" height="4" fill="#C7F6FC" />
<rect x="96" y="28" width="4" height="4" fill="#C7F6FC" />
<rect x="100" y="28" width="4" height="4" fill="#C7F6FC" />
<rect x="104" y="28" width="4" height="4" fill="#8DE7F4" />
<rect x="108" y="28" width="4" height="4" fill="#559FC9" />
<rect x="112" y="28" width="4" height="4" fill="#3C88B4" />
<rect x="116" y="28" width="4" height="4" fill="#3C88B4" />
<rect x="120" y="28" width="4" height="4" fill="#559FC9" />
<rect x="8" y="32" width="4" height="4" fill="#F2ED8C" />
<rect x="12" y="32" width="4" height="4" fill="#F2ED8C" />
<rect x="16" y="32" width="4" height="4" fill="#F2ED8C" />
<rect x="20" y="32" width="4" height="4" fill="#F2ED8C" />
<rect x="24" y="32" width="4" height="4" fill="#F2ED8C" />
<rect x="28" y="32" width="4" height="4" fill="#F2ED8C" />
<rect x="32" y="32" width="4" height="4" fill="#F2ED8C" />
<rect x="36" y="32" width="4" height="4" fill="#F2ED8C" />
<rect x="40" y="32" width="4" height="4" fill="#F2ED8C" />
<rect x="44" y="32" width="4" height="4" fill="#F2ED8C" />
<rect x="48" y="32" width="4" height="4" fill="#F2ED8C" />
<rect x="52" y="32" width="4" height="4" fill="#F2ED8C" />
<rect x="56" y="32" width="4" height="4" fill="#F2ED8C" />
<rect x="60" y="32" width="4" height="4" fill="#F2ED8C" />
<rect x="64" y="32" width="4" height="4" fill="#51D0E2" />
<rect x="68" y="32" width="4" height="4" fill="#92DCE7" />
<rect x="72" y="32" width="4" height="4" fill="#FFFFFF" />
<rect x="76" y="32" width="4" height="4" fill="#C7F6FC" />
<rect x="80" y="32" width="4" height="4" fill="#C7F6FC" />
<rect x="84" y="32" width="4" height="4" fill="#FFFFFF" />
<rect x="88" y="32" width="4" height="4" fill="#C7F6FC" />
<rect x="92" y="32" width="4" height="4" fill="#C7F6FC" />
<rect x="96" y="32" width="4" height="4" fill="#8DE7F4" />
<rect x="100" y="32" width="4" height="4" fill="#559FC9" />
<rect x="104" y="32" width="4" height="4" fill="#559FC9" />
<rect x="108" y="32" width="4" height="4" fill="#3C88B4" />
<rect x="112" y="32" width="4" height="4" fill="#3C88B4" />
<rect x="116" y="32" width="4" height="4" fill="#3C88B4" />
<rect x="120" y="32" width="4" height="4" fill="#3C88B4" />
<rect x="4" y="36" width="4" height="4" fill="#F2ED8C" />
<rect x="8" y="36" width="4" height="4" fill="#F2ED8C" />
<rect x="12" y="36" width="4" height="4" fill="#F2ED8C" />
<rect x="16" y="36" width="4" height="4" fill="#F2ED8C" />
<rect x="20" y="36" width="4" height="4" fill="#F2ED8C" />
<rect x="24" y="36" width="4" height="4" fill="#F2ED8C" />
<rect x="28" y="36" width="4" height="4" fill="#F2ED8C" />
<rect x="32" y="36" width="4" height="4" fill="#F2ED8C" />
<rect x="36" y="36" width="4" height="4" fill="#F2ED8C" />
<rect x="40" y="36" width="4" height="4" fill="#F2ED8C" />
<rect x="44" y="36" width="4" height="4" fill="#F2ED8C" />
<rect x="48" y="36" width="4" height="4" fill="#F2ED8C" />
<rect x="52" y="36" width="4" height="4" fill="#F2ED8C" />
<rect x="56" y="36" width="4" height="4" fill="#F2ED8C" />
<rect x="60" y="36" width="4" height="4" fill="#F2ED8C" />
<rect x="64" y="36" width="4" height="4" fill="#F2ED8C" />
<rect x="68" y="36" width="4" height="4" fill="#C7F6FC" />
<rect x="72" y="36" width="4" height="4" fill="#92DCE7" />
<rect x="76" y="36" width="4" height="4" fill="#92DCE7" />
<rect x="80" y="36" width="4" height="4" fill="#51D0E2" />
<rect x="84" y="36" width="4" height="4" fill="#51D0E2" />
<rect x="88" y="36" width="4" height="4" fill="#FFFFFF" />
<rect x="92" y="36" width="4" height="4" fill="#C7F6FC" />
<rect x="96" y="36" width="4" height="4" fill="#559FC9" />
<rect x="100" y="36" width="4" height="4" fill="#3C88B4" />
<rect x="104" y="36" width="4" height="4" fill="#3C88B4" />
<rect x="108" y="36" width="4" height="4" fill="#3C88B4" />
<rect x="112" y="36" width="4" height="4" fill="#3C88B4" />
<rect x="116" y="36" width="4" height="4" fill="#3C88B4" />
<rect x="120" y="36" width="4" height="4" fill="#559FC9" />
<rect x="4" y="40" width="4" height="4" fill="#DFDA75" />
<rect x="8" y="40" width="4" height="4" fill="#DFDA75" />
<rect x="12" y="40" width="4" height="4" fill="#F2ED8C" />
<rect x="16" y="40" width="4" height="4" fill="#F2ED8C" />
<rect x="20" y="40" width="4" height="4" fill="#F2ED8C" />
<rect x="24" y="40" width="4" height="4" fill="#F2ED8C" />
<rect x="28" y="40" width="4" height="4" fill="#F2ED8C" />
<rect x="32" y="40" width="4" height="4" fill="#F2ED8C" />
<rect x="36" y="40" width="4" height="4" fill="#F2ED8C" />
<rect x="40" y="40" width="4" height="4" fill="#F2ED8C" />
<rect x="44" y="40" width="4" height="4" fill="#F2ED8C" />
<rect x="48" y="40" width="4" height="4" fill="#F2ED8C" />
<rect x="52" y="40" width="4" height="4" fill="#F2ED8C" />
<rect x="56" y="40" width="4" height="4" fill="#F2ED8C" />
<rect x="60" y="40" width="4" height="4" fill="#AEAB65" />
<rect x="64" y="40" width="4" height="4" fill="#AEAB65" />
<rect x="68" y="40" width="4" height="4" fill="#92DCE7" />
<rect x="72" y="40" width="4" height="4" fill="#92DCE7" />
<rect x="76" y="40" width="4" height="4" fill="#92DCE7" />
<rect x="80" y="40" width="4" height="4" fill="#51D0E2" />
<rect x="84" y="40" width="4" height="4" fill="#C7F6FC" />
<rect x="88" y="40" width="4" height="4" fill="#92DCE7" />
<rect x="92" y="40" width="4" height="4" fill="#559FC9" />
<rect x="96" y="40" width="4" height="4" fill="#3C88B4" />
<rect x="100" y="40" width="4" height="4" fill="#3C88B4" />
<rect x="104" y="40" width="4" height="4" fill="#3C88B4" />
<rect x="108" y="40" width="4" height="4" fill="#3C88B4" />
<rect x="112" y="40" width="4" height="4" fill="#3C88B4" />
<rect x="116" y="40" width="4" height="4" fill="#3C88B4" />
<rect x="120" y="40" width="4" height="4" fill="#559FC9" />
<rect x="4" y="44" width="4" height="4" fill="#DFDA75" />
<rect x="8" y="44" width="4" height="4" fill="#DFDA75" />
<rect x="12" y="44" width="4" height="4" fill="#DFDA75" />
<rect x="16" y="44" width="4" height="4" fill="#DFDA75" />
<rect x="20" y="44" width="4" height="4" fill="#F2ED8C" />
<rect x="24" y="44" width="4" height="4" fill="#F2ED8C" />
<rect x="28" y="44" width="4" height="4" fill="#F2ED8C" />
<rect x="32" y="44" width="4" height="4" fill="#F2ED8C" />
<rect x="36" y="44" width="4" height="4" fill="#F2ED8C" />
<rect x="40" y="44" width="4" height="4" fill="#F2ED8C" />
<rect x="44" y="44" width="4" height="4" fill="#F2ED8C" />
<rect x="48" y="44" width="4" height="4" fill="#F2ED8C" />
<rect x="52" y="44" width="4" height="4" fill="#AEAB65" />
<rect x="56" y="44" width="4" height="4" fill="#AEAB65" />
<rect x="60" y="44" width="4" height="4" fill="#AEAB65" />
<rect x="64" y="44" width="4" height="4" fill="#AEAB65" />
<rect x="68" y="44" width="4" height="4" fill="#92DCE7" />
<rect x="72" y="44" width="4" height="4" fill="#92DCE7" />
<rect x="76" y="44" width="4" height="4" fill="#51D0E2" />
<rect x="80" y="44" width="4" height="4" fill="#51D0E2" />
<rect x="84" y="44" width="4" height="4" fill="#92DCE7" />
<rect x="88" y="44" width="4" height="4" fill="#92DCE7" />
<rect x="92" y="44" width="4" height="4" fill="#3C88B4" />
<rect x="96" y="44" width="4" height="4" fill="#3C88B4" />
<rect x="100" y="44" width="4" height="4" fill="#3C88B4" />
<rect x="104" y="44" width="4" height="4" fill="#3C88B4" />
<rect x="108" y="44" width="4" height="4" fill="#3C88B4" />
<rect x="112" y="44" width="4" height="4" fill="#3C88B4" />
<rect x="116" y="44" width="4" height="4" fill="#3C88B4" />
<rect x="120" y="44" width="4" height="4" fill="#3C88B4" />
<rect x="4" y="48" width="4" height="4" fill="#DFDA75" />
<rect x="8" y="48" width="4" height="4" fill="#DFDA75" />
<rect x="12" y="48" width="4" height="4" fill="#DFDA75" />
<rect x="16" y="48" width="4" height="4" fill="#DFDA75" />
<rect x="20" y="48" width="4" height="4" fill="#DFDA75" />
<rect x="24" y="48" width="4" height="4" fill="#DFDA75" />
<rect x="28" y="48" width="4" height="4" fill="#F2ED8C" />
<rect x="32" y="48" width="4" height="4" fill="#F2ED8C" />
<rect x="36" y="48" width="4" height="4" fill="#F2ED8C" />
<rect x="40" y="48" width="4" height="4" fill="#F2ED8C" />
<rect x="44" y="48" width="4" height="4" fill="#AEAB65" />
<rect x="48" y="48" width="4" height="4" fill="#AEAB65" />
<rect x="52" y="48" width="4" height="4" fill="#AEAB65" />
<rect x="56" y="48" width="4" height="4" fill="#AEAB65" />
<rect x="60" y="48" width="4" height="4" fill="#AEAB65" />
<rect x="64" y="48" width="4" height="4" fill="#AEAB65" />
<rect x="68" y="48" width="4" height="4" fill="#92DCE7" />
<rect x="72" y="48" width="4" height="4" fill="#99E550" />
<rect x="76" y="48" width="4" height="4" fill="#99E550" />
<rect x="80" y="48" width="4" height="4" fill="#99E550" />
<rect x="84" y="48" width="4" height="4" fill="#99E550" />
<rect x="88" y="48" width="4" height="4" fill="#C7F6FC" />
<rect x="92" y="48" width="4" height="4" fill="#367499" />
<rect x="96" y="48" width="4" height="4" fill="#367499" />
<rect x="100" y="48" width="4" height="4" fill="#3C88B4" />
<rect x="104" y="48" width="4" height="4" fill="#3C88B4" />
<rect x="108" y="48" width="4" height="4" fill="#3C88B4" />
<rect x="112" y="48" width="4" height="4" fill="#3C88B4" />
<rect x="116" y="48" width="4" height="4" fill="#3C88B4" />
<rect x="120" y="48" width="4" height="4" fill="#3C88B4" />
<rect x="4" y="52" width="4" height="4" fill="#DFDA75" />
<rect x="8" y="52" width="4" height="4" fill="#DFDA75" />
<rect x="12" y="52" width="4" height="4" fill="#DFDA75" />
<rect x="16" y="52" width="4" height="4" fill="#DFDA75" />
<rect x="20" y="52" width="4" height="4" fill="#DFDA75" />
<rect x="24" y="52" width="4" height="4" fill="#DFDA75" />
<rect x="28" y="52" width="4" height="4" fill="#DFDA75" />
<rect x="32" y="52" width="4" height="4" fill="#F2ED8C" />
<rect x="36" y="52" width="4" height="4" fill="#F2ED8C" />
<rect x="40" y="52" width="4" height="4" fill="#AEAB65" />
<rect x="44" y="52" width="4" height="4" fill="#AEAB65" />
<rect x="48" y="52" width="4" height="4" fill="#AEAB65" />
<rect x="52" y="52" width="4" height="4" fill="#AEAB65" />
<rect x="56" y="52" width="4" height="4" fill="#AEAB65" />
<rect x="60" y="52" width="4" height="4" fill="#AEAB65" />
<rect x="64" y="52" width="4" height="4" fill="#99E550" />
<rect x="68" y="52" width="4" height="4" fill="#99E550" />
<rect x="72" y="52" width="4" height="4" fill="#99E550" />
<rect x="76" y="52" width="4" height="4" fill="#99E550" />
<rect x="80" y="52" width="4" height="4" fill="#99E550" />
<rect x="84" y="52" width="4" height="4" fill="#99E550" />
<rect x="88" y="52" width="4" height="4" fill="#99E550" />
<rect x="92" y="52" width="4" height="4" fill="#99E550" />
<rect x="96" y="52" width="4" height="4" fill="#367499" />
<rect x="100" y="52" width="4" height="4" fill="#367499" />
<rect x="104" y="52" width="4" height="4" fill="#367499" />
<rect x="108" y="52" width="4" height="4" fill="#3C88B4" />
<rect x="112" y="52" width="4" height="4" fill="#3C88B4" />
<rect x="116" y="52" width="4" height="4" fill="#3C88B4" />
<rect x="120" y="52" width="4" height="4" fill="#559FC9" />
<rect x="4" y="56" width="4" height="4" fill="#DFDA75" />
<rect x="8" y="56" width="4" height="4" fill="#DFDA75" />
<rect x="12" y="56" width="4" height="4" fill="#DFDA75" />
<rect x="16" y="56" width="4" height="4" fill="#DFDA75" />
<rect x="20" y="56" width="4" height="4" fill="#DFDA75" />
<rect x="24" y="56" width="4" height="4" fill="#DFDA75" />
<rect x="28" y="56" width="4" height="4" fill="#DFDA75" />
<rect x="32" y="56" width="4" height="4" fill="#DFDA75" />
<rect x="36" y="56" width="4" height="4" fill="#AEAB65" />
<rect x="40" y="56" width="4" height="4" fill="#AEAB65" />
<rect x="44" y="56" width="4" height="4" fill="#AEAB65" />
<rect x="48" y="56" width="4" height="4" fill="#AEAB65" />
<rect x="52" y="56" width="4" height="4" fill="#AEAB65" />
<rect x="56" y="56" width="4" height="4" fill="#AEAB65" />
<rect x="60" y="56" width="4" height="4" fill="#99E550" />
<rect x="64" y="56" width="4" height="4" fill="#99E550" />
<rect x="68" y="56" width="4" height="4" fill="#99E550" />
<rect x="72" y="56" width="4" height="4" fill="#99E550" />
<rect x="76" y="56" width="4" height="4" fill="#99E550" />
<rect x="80" y="56" width="4" height="4" fill="#99E550" />
<rect x="84" y="56" width="4" height="4" fill="#99E550" />
<rect x="88" y="56" width="4" height="4" fill="#99E550" />
<rect x="92" y="56" width="4" height="4" fill="#99E550" />
<rect x="96" y="56" width="4" height="4" fill="#99E550" />
<rect x="100" y="56" width="4" height="4" fill="#367499" />
<rect x="104" y="56" width="4" height="4" fill="#367499" />
<rect x="108" y="56" width="4" height="4" fill="#367499" />
<rect x="112" y="56" width="4" height="4" fill="#367499" />
<rect x="116" y="56" width="4" height="4" fill="#3C88B4" />
<rect x="120" y="56" width="4" height="4" fill="#559FC9" />
<rect x="4" y="60" width="4" height="4" fill="#DFDA75" />
<rect x="8" y="60" width="4" height="4" fill="#DFDA75" />
<rect x="12" y="60" width="4" height="4" fill="#DFDA75" />
<rect x="16" y="60" width="4" height="4" fill="#DFDA75" />
<rect x="20" y="60" width="4" height="4" fill="#DFDA75" />
<rect x="24" y="60" width="4" height="4" fill="#DFDA75" />
<rect x="28" y="60" width="4" height="4" fill="#DFDA75" />
<rect x="32" y="60" width="4" height="4" fill="#DFDA75" />
<rect x="36" y="60" width="4" height="4" fill="#AEAB65" />
<rect x="40" y="60" width="4" height="4" fill="#AEAB65" />
<rect x="44" y="60" width="4" height="4" fill="#AEAB65" />
<rect x="48" y="60" width="4" height="4" fill="#AEAB65" />
<rect x="52" y="60" width="4" height="4" fill="#99E550" />
<rect x="56" y="60" width="4" height="4" fill="#99E550" />
<rect x="60" y="60" width="4" height="4" fill="#99E550" />
<rect x="64" y="60" width="4" height="4" fill="#99E550" />
<rect x="68" y="60" width="4" height="4" fill="#99E550" />
<rect x="72" y="60" width="4" height="4" fill="#99E550" />
<rect x="76" y="60" width="4" height="4" fill="#99E550" />
<rect x="80" y="60" width="4" height="4" fill="#99E550" />
<rect x="84" y="60" width="4" height="4" fill="#99E550" />
<rect x="88" y="60" width="4" height="4" fill="#99E550" />
<rect x="92" y="60" width="4" height="4" fill="#99E550" />
<rect x="96" y="60" width="4" height="4" fill="#99E550" />
<rect x="100" y="60" width="4" height="4" fill="#99E550" />
<rect x="104" y="60" width="4" height="4" fill="#99E550" />
<rect x="108" y="60" width="4" height="4" fill="#367499" />
<rect x="112" y="60" width="4" height="4" fill="#367499" />
<rect x="116" y="60" width="4" height="4" fill="#367499" />
<rect x="120" y="60" width="4" height="4" fill="#367499" />
<rect x="4" y="64" width="4" height="4" fill="#DFDA75" />
<rect x="8" y="64" width="4" height="4" fill="#DFDA75" />
<rect x="12" y="64" width="4" height="4" fill="#DFDA75" />
<rect x="16" y="64" width="4" height="4" fill="#DFDA75" />
<rect x="20" y="64" width="4" height="4" fill="#DFDA75" />
<rect x="24" y="64" width="4" height="4" fill="#DFDA75" />
<rect x="28" y="64" width="4" height="4" fill="#DFDA75" />
<rect x="32" y="64" width="4" height="4" fill="#DFDA75" />
<rect x="36" y="64" width="4" height="4" fill="#AEAB65" />
<rect x="40" y="64" width="4" height="4" fill="#AEAB65" />
<rect x="44" y="64" width="4" height="4" fill="#AEAB65" />
<rect x="48" y="64" width="4" height="4" fill="#99E550" />
<rect x="52" y="64" width="4" height="4" fill="#99E550" />
<rect x="56" y="64" width="4" height="4" fill="#99E550" />
<rect x="60" y="64" width="4" height="4" fill="#99E550" />
<rect x="64" y="64" width="4" height="4" fill="#99E550" />
<rect x="68" y="64" width="4" height="4" fill="#99E550" />
<rect x="72" y="64" width="4" height="4" fill="#99E550" />
<rect x="76" y="64" width="4" height="4" fill="#99E550" />
<rect x="80" y="64" width="4" height="4" fill="#99E550" />
<rect x="84" y="64" width="4" height="4" fill="#99E550" />
<rect x="88" y="64" width="4" height="4" fill="#99E550" />
<rect x="92" y="64" width="4" height="4" fill="#99E550" />
<rect x="96" y="64" width="4" height="4" fill="#99E550" />
<rect x="100" y="64" width="4" height="4" fill="#99E550" />
<rect x="104" y="64" width="4" height="4" fill="#99E550" />
<rect x="108" y="64" width="4" height="4" fill="#99E550" />
<rect x="112" y="64" width="4" height="4" fill="#367499" />
<rect x="4" y="68" width="4" height="4" fill="#DFDA75" />
<rect x="8" y="68" width="4" height="4" fill="#DFDA75" />
<rect x="12" y="68" width="4" height="4" fill="#DFDA75" />
<rect x="16" y="68" width="4" height="4" fill="#DFDA75" />
<rect x="20" y="68" width="4" height="4" fill="#DFDA75" />
<rect x="24" y="68" width="4" height="4" fill="#DFDA75" />
<rect x="28" y="68" width="4" height="4" fill="#DFDA75" />
<rect x="32" y="68" width="4" height="4" fill="#DFDA75" />
<rect x="36" y="68" width="4" height="4" fill="#AEAB65" />
<rect x="40" y="68" width="4" height="4" fill="#AEAB65" />
<rect x="44" y="68" width="4" height="4" fill="#AEAB65" />
<rect x="48" y="68" width="4" height="4" fill="#6ABE30" />
<rect x="52" y="68" width="4" height="4" fill="#6ABE30" />
<rect x="56" y="68" width="4" height="4" fill="#99E550" />
<rect x="60" y="68" width="4" height="4" fill="#99E550" />
<rect x="64" y="68" width="4" height="4" fill="#99E550" />
<rect x="68" y="68" width="4" height="4" fill="#99E550" />
<rect x="72" y="68" width="4" height="4" fill="#99E550" />
<rect x="76" y="68" width="4" height="4" fill="#99E550" />
<rect x="80" y="68" width="4" height="4" fill="#99E550" />
<rect x="84" y="68" width="4" height="4" fill="#99E550" />
<rect x="88" y="68" width="4" height="4" fill="#99E550" />
<rect x="92" y="68" width="4" height="4" fill="#99E550" />
<rect x="96" y="68" width="4" height="4" fill="#99E550" />
<rect x="100" y="68" width="4" height="4" fill="#99E550" />
<rect x="104" y="68" width="4" height="4" fill="#538E2A" />
<rect x="108" y="68" width="4" height="4" fill="#538E2A" />
<rect x="4" y="72" width="4" height="4" fill="#DFDA75" />
<rect x="8" y="72" width="4" height="4" fill="#DFDA75" />
<rect x="12" y="72" width="4" height="4" fill="#DFDA75" />
<rect x="16" y="72" width="4" height="4" fill="#DFDA75" />
<rect x="20" y="72" width="4" height="4" fill="#DFDA75" />
<rect x="24" y="72" width="4" height="4" fill="#DFDA75" />
<rect x="28" y="72" width="4" height="4" fill="#DFDA75" />
<rect x="32" y="72" width="4" height="4" fill="#DFDA75" />
<rect x="36" y="72" width="4" height="4" fill="#AEAB65" />
<rect x="40" y="72" width="4" height="4" fill="#AEAB65" />
<rect x="44" y="72" width="4" height="4" fill="#AEAB65" />
<rect x="48" y="72" width="4" height="4" fill="#6ABE30" />
<rect x="52" y="72" width="4" height="4" fill="#6ABE30" />
<rect x="56" y="72" width="4" height="4" fill="#6ABE30" />
<rect x="60" y="72" width="4" height="4" fill="#6ABE30" />
<rect x="64" y="72" width="4" height="4" fill="#99E550" />
<rect x="68" y="72" width="4" height="4" fill="#99E550" />
<rect x="72" y="72" width="4" height="4" fill="#99E550" />
<rect x="76" y="72" width="4" height="4" fill="#99E550" />
<rect x="80" y="72" width="4" height="4" fill="#99E550" />
<rect x="84" y="72" width="4" height="4" fill="#99E550" />
<rect x="88" y="72" width="4" height="4" fill="#99E550" />
<rect x="92" y="72" width="4" height="4" fill="#99E550" />
<rect x="96" y="72" width="4" height="4" fill="#538E2A" />
<rect x="100" y="72" width="4" height="4" fill="#538E2A" />
<rect x="104" y="72" width="4" height="4" fill="#538E2A" />
<rect x="108" y="72" width="4" height="4" fill="#538E2A" />
<rect x="4" y="76" width="4" height="4" fill="#DFDA75" />
<rect x="8" y="76" width="4" height="4" fill="#DFDA75" />
<rect x="12" y="76" width="4" height="4" fill="#DFDA75" />
<rect x="16" y="76" width="4" height="4" fill="#DFDA75" />
<rect x="20" y="76" width="4" height="4" fill="#DFDA75" />
<rect x="24" y="76" width="4" height="4" fill="#DFDA75" />
<rect x="28" y="76" width="4" height="4" fill="#DFDA75" />
<rect x="32" y="76" width="4" height="4" fill="#DFDA75" />
<rect x="36" y="76" width="4" height="4" fill="#AEAB65" />
<rect x="40" y="76" width="4" height="4" fill="#AEAB65" />
<rect x="44" y="76" width="4" height="4" fill="#AEAB65" />
<rect x="48" y="76" width="4" height="4" fill="#6ABE30" />
<rect x="52" y="76" width="4" height="4" fill="#6ABE30" />
<rect x="56" y="76" width="4" height="4" fill="#6ABE30" />
<rect x="60" y="76" width="4" height="4" fill="#6ABE30" />
<rect x="64" y="76" width="4" height="4" fill="#6ABE30" />
<rect x="68" y="76" width="4" height="4" fill="#6ABE30" />
<rect x="72" y="76" width="4" height="4" fill="#99E550" />
<rect x="76" y="76" width="4" height="4" fill="#99E550" />
<rect x="80" y="76" width="4" height="4" fill="#99E550" />
<rect x="84" y="76" width="4" height="4" fill="#99E550" />
<rect x="88" y="76" width="4" height="4" fill="#538E2A" />
<rect x="92" y="76" width="4" height="4" fill="#538E2A" />
<rect x="96" y="76" width="4" height="4" fill="#538E2A" />
<rect x="100" y="76" width="4" height="4" fill="#538E2A" />
<rect x="104" y="76" width="4" height="4" fill="#538E2A" />
<rect x="108" y="76" width="4" height="4" fill="#538E2A" />
<rect x="12" y="80" width="4" height="4" fill="#DFDA75" />
<rect x="16" y="80" width="4" height="4" fill="#DFDA75" />
<rect x="20" y="80" width="4" height="4" fill="#DFDA75" />
<rect x="24" y="80" width="4" height="4" fill="#DFDA75" />
<rect x="28" y="80" width="4" height="4" fill="#DFDA75" />
<rect x="32" y="80" width="4" height="4" fill="#DFDA75" />
<rect x="36" y="80" width="4" height="4" fill="#AEAB65" />
<rect x="40" y="80" width="4" height="4" fill="#AEAB65" />
<rect x="44" y="80" width="4" height="4" fill="#AEAB65" />
<rect x="48" y="80" width="4" height="4" fill="#8F563B" />
<rect x="52" y="80" width="4" height="4" fill="#8F563B" />
<rect x="56" y="80" width="4" height="4" fill="#6ABE30" />
<rect x="60" y="80" width="4" height="4" fill="#6ABE30" />
<rect x="64" y="80" width="4" height="4" fill="#6ABE30" />
<rect x="68" y="80" width="4" height="4" fill="#6ABE30" />
<rect x="72" y="80" width="4" height="4" fill="#6ABE30" />
<rect x="76" y="80" width="4" height="4" fill="#99E550" />
<rect x="80" y="80" width="4" height="4" fill="#99E550" />
<rect x="84" y="80" width="4" height="4" fill="#538E2A" />
<rect x="88" y="80" width="4" height="4" fill="#538E2A" />
<rect x="92" y="80" width="4" height="4" fill="#538E2A" />
<rect x="96" y="80" width="4" height="4" fill="#538E2A" />
<rect x="100" y="80" width="4" height="4" fill="#538E2A" />
<rect x="104" y="80" width="4" height="4" fill="#663931" />
<rect x="108" y="80" width="4" height="4" fill="#663931" />
<rect x="20" y="84" width="4" height="4" fill="#DFDA75" />
<rect x="24" y="84" width="4" height="4" fill="#DFDA75" />
<rect x="28" y="84" width="4" height="4" fill="#DFDA75" />
<rect x="32" y="84" width="4" height="4" fill="#DFDA75" />
<rect x="36" y="84" width="4" height="4" fill="#AEAB65" />
<rect x="40" y="84" width="4" height="4" fill="#AEAB65" />
<rect x="44" y="84" width="4" height="4" fill="#AEAB65" />
<rect x="48" y="84" width="4" height="4" fill="#8F563B" />
<rect x="52" y="84" width="4" height="4" fill="#8F563B" />
<rect x="56" y="84" width="4" height="4" fill="#8F563B" />
<rect x="60" y="84" width="4" height="4" fill="#8F563B" />
<rect x="64" y="84" width="4" height="4" fill="#6ABE30" />
<rect x="68" y="84" width="4" height="4" fill="#6ABE30" />
<rect x="72" y="84" width="4" height="4" fill="#6ABE30" />
<rect x="76" y="84" width="4" height="4" fill="#6ABE30" />
<rect x="80" y="84" width="4" height="4" fill="#538E2A" />
<rect x="84" y="84" width="4" height="4" fill="#538E2A" />
<rect x="88" y="84" width="4" height="4" fill="#538E2A" />
<rect x="92" y="84" width="4" height="4" fill="#538E2A" />
<rect x="96" y="84" width="4" height="4" fill="#663931" />
<rect x="100" y="84" width="4" height="4" fill="#663931" />
<rect x="104" y="84" width="4" height="4" fill="#663931" />
<rect x="108" y="84" width="4" height="4" fill="#663931" />
<rect x="24" y="88" width="4" height="4" fill="#DFDA75" />
<rect x="28" y="88" width="4" height="4" fill="#DFDA75" />
<rect x="32" y="88" width="4" height="4" fill="#DFDA75" />
<rect x="36" y="88" width="4" height="4" fill="#AEAB65" />
<rect x="40" y="88" width="4" height="4" fill="#AEAB65" />
<rect x="44" y="88" width="4" height="4" fill="#AEAB65" />
<rect x="48" y="88" width="4" height="4" fill="#8F563B" />
<rect x="52" y="88" width="4" height="4" fill="#8F563B" />
<rect x="56" y="88" width="4" height="4" fill="#8F563B" />
<rect x="60" y="88" width="4" height="4" fill="#8F563B" />
<rect x="64" y="88" width="4" height="4" fill="#8F563B" />
<rect x="68" y="88" width="4" height="4" fill="#6ABE30" />
<rect x="72" y="88" width="4" height="4" fill="#6ABE30" />
<rect x="76" y="88" width="4" height="4" fill="#6ABE30" />
<rect x="80" y="88" width="4" height="4" fill="#538E2A" />
<rect x="84" y="88" width="4" height="4" fill="#538E2A" />
<rect x="88" y="88" width="4" height="4" fill="#538E2A" />
<rect x="92" y="88" width="4" height="4" fill="#663931" />
<rect x="96" y="88" width="4" height="4" fill="#663931" />
<rect x="100" y="88" width="4" height="4" fill="#663931" />
<rect x="104" y="88" width="4" height="4" fill="#663931" />
<rect x="108" y="88" width="4" height="4" fill="#663931" />
<rect x="32" y="92" width="4" height="4" fill="#DFDA75" />
<rect x="36" y="92" width="4" height="4" fill="#AEAB65" />
<rect x="48" y="92" width="4" height="4" fill="#8F563B" />
<rect x="52" y="92" width="4" height="4" fill="#8F563B" />
<rect x="56" y="92" width="4" height="4" fill="#8F563B" />
<rect x="60" y="92" width="4" height="4" fill="#8F563B" />
<rect x="64" y="92" width="4" height="4" fill="#8F563B" />
<rect x="68" y="92" width="4" height="4" fill="#8F563B" />
<rect x="72" y="92" width="4" height="4" fill="#8F563B" />
<rect x="76" y="92" width="4" height="4" fill="#6ABE30" />
<rect x="80" y="92" width="4" height="4" fill="#538E2A" />
<rect x="84" y="92" width="4" height="4" fill="#663931" />
<rect x="88" y="92" width="4" height="4" fill="#663931" />
<rect x="92" y="92" width="4" height="4" fill="#663931" />
<rect x="96" y="92" width="4" height="4" fill="#663931" />
<rect x="100" y="92" width="4" height="4" fill="#663931" />
<rect x="104" y="92" width="4" height="4" fill="#663931" />
<rect x="108" y="92" width="4" height="4" fill="#663931" />
<rect x="48" y="96" width="4" height="4" fill="#8F563B" />
<rect x="52" y="96" width="4" height="4" fill="#8F563B" />
<rect x="56" y="96" width="4" height="4" fill="#8F563B" />
<rect x="60" y="96" width="4" height="4" fill="#8F563B" />
<rect x="64" y="96" width="4" height="4" fill="#8F563B" />
<rect x="68" y="96" width="4" height="4" fill="#8F563B" />
<rect x="72" y="96" width="4" height="4" fill="#8F563B" />
<rect x="76" y="96" width="4" height="4" fill="#8F563B" />
<rect x="80" y="96" width="4" height="4" fill="#663931" />
<rect x="84" y="96" width="4" height="4" fill="#663931" />
<rect x="88" y="96" width="4" height="4" fill="#663931" />
<rect x="92" y="96" width="4" height="4" fill="#663931" />
<rect x="96" y="96" width="4" height="4" fill="#663931" />
<rect x="100" y="96" width="4" height="4" fill="#663931" />
<rect x="104" y="96" width="4" height="4" fill="#663931" />
<rect x="108" y="96" width="4" height="4" fill="#663931" />
<rect x="48" y="100" width="4" height="4" fill="#8F563B" />
<rect x="52" y="100" width="4" height="4" fill="#8F563B" />
<rect x="56" y="100" width="4" height="4" fill="#8F563B" />
<rect x="60" y="100" width="4" height="4" fill="#8F563B" />
<rect x="64" y="100" width="4" height="4" fill="#8F563B" />
<rect x="68" y="100" width="4" height="4" fill="#8F563B" />
<rect x="72" y="100" width="4" height="4" fill="#8F563B" />
<rect x="76" y="100" width="4" height="4" fill="#8F563B" />
<rect x="80" y="100" width="4" height="4" fill="#663931" />
<rect x="84" y="100" width="4" height="4" fill="#663931" />
<rect x="88" y="100" width="4" height="4" fill="#663931" />
<rect x="92" y="100" width="4" height="4" fill="#663931" />
<rect x="96" y="100" width="4" height="4" fill="#663931" />
<rect x="100" y="100" width="4" height="4" fill="#663931" />
<rect x="104" y="100" width="4" height="4" fill="#663931" />
<rect x="108" y="100" width="4" height="4" fill="#663931" />
<rect x="48" y="104" width="4" height="4" fill="#8F563B" />
<rect x="52" y="104" width="4" height="4" fill="#8F563B" />
<rect x="56" y="104" width="4" height="4" fill="#8F563B" />
<rect x="60" y="104" width="4" height="4" fill="#8F563B" />
<rect x="64" y="104" width="4" height="4" fill="#8F563B" />
<rect x="68" y="104" width="4" height="4" fill="#8F563B" />
<rect x="72" y="104" width="4" height="4" fill="#8F563B" />
<rect x="76" y="104" width="4" height="4" fill="#8F563B" />
<rect x="80" y="104" width="4" height="4" fill="#663931" />
<rect x="84" y="104" width="4" height="4" fill="#663931" />
<rect x="88" y="104" width="4" height="4" fill="#663931" />
<rect x="92" y="104" width="4" height="4" fill="#663931" />
<rect x="96" y="104" width="4" height="4" fill="#663931" />
<rect x="100" y="104" width="4" height="4" fill="#663931" />
<rect x="104" y="104" width="4" height="4" fill="#663931" />
<rect x="108" y="104" width="4" height="4" fill="#663931" />
<rect x="56" y="108" width="4" height="4" fill="#8F563B" />
<rect x="60" y="108" width="4" height="4" fill="#8F563B" />
<rect x="64" y="108" width="4" height="4" fill="#8F563B" />
<rect x="68" y="108" width="4" height="4" fill="#8F563B" />
<rect x="72" y="108" width="4" height="4" fill="#8F563B" />
<rect x="76" y="108" width="4" height="4" fill="#8F563B" />
<rect x="80" y="108" width="4" height="4" fill="#663931" />
<rect x="84" y="108" width="4" height="4" fill="#663931" />
<rect x="88" y="108" width="4" height="4" fill="#663931" />
<rect x="92" y="108" width="4" height="4" fill="#663931" />
<rect x="96" y="108" width="4" height="4" fill="#663931" />
<rect x="100" y="108" width="4" height="4" fill="#663931" />
<rect x="64" y="112" width="4" height="4" fill="#8F563B" />
<rect x="68" y="112" width="4" height="4" fill="#8F563B" />
<rect x="72" y="112" width="4" height="4" fill="#8F563B" />
<rect x="76" y="112" width="4" height="4" fill="#8F563B" />
<rect x="80" y="112" width="4" height="4" fill="#663931" />
<rect x="84" y="112" width="4" height="4" fill="#663931" />
<rect x="88" y="112" width="4" height="4" fill="#663931" />
<rect x="92" y="112" width="4" height="4" fill="#663931" />
<rect x="68" y="116" width="4" height="4" fill="#8F563B" />
<rect x="72" y="116" width="4" height="4" fill="#8F563B" />
<rect x="76" y="116" width="4" height="4" fill="#8F563B" />
<rect x="80" y="116" width="4" height="4" fill="#663931" />
<rect x="84" y="116" width="4" height="4" fill="#663931" />
<rect x="88" y="116" width="4" height="4" fill="#663931" />
<rect x="76" y="120" width="4" height="4" fill="#8F563B" />
<rect x="80" y="120" width="4" height="4" fill="#663931" />
</svg>